<mxfile host="app.diagrams.net" modified="2024-06-03T13:35:58.109Z" agent="Mozilla/5.0 (Windows NT 10.0; Win64; x64) AppleWebKit/537.36 (KHTML, like Gecko) Chrome/125.0.0.0 Safari/537.36" version="24.4.11" etag="iZwJGvBqt58L2l3XzYtn" type="github">
  <diagram name="Page-1" id="ee-9j6xo_8bMcpAGnPA2">
    <mxGraphModel>
      <root>
        <mxCell id="0" />
        <mxCell id="1" parent="0" />
      </root>
    </mxGraphModel>
  </diagram>
</mxfile>
